<?xml version="1.0" encoding="UTF-8" standalone="no"?><!DOCTYPE svg PUBLIC "-//W3C//DTD SVG 1.1//EN" "http://www.w3.org/Graphics/SVG/1.1/DTD/svg11.dtd"><svg width="100%" height="100%" viewBox="0 0 69 45" version="1.1" xmlns="http://www.w3.org/2000/svg" xmlns:xlink="http://www.w3.org/1999/xlink" xml:space="preserve" xmlns:serif="http://www.serif.com/" style="fill-rule:evenodd;clip-rule:evenodd;stroke-linejoin:round;stroke-miterlimit:2;"><rect id="australia" x="0" y="0" width="68.801" height="44.797" style="fill:none;"/><g id="australia1" serif:id="australia"><path id="path4182" d="M6.428,0l6.373,0l0,4.887l-6.373,-4.887Z" style="fill:url(#_Linear1);fill-rule:nonzero;"/><path id="path4180" d="M14.4,0l4.1,0l0,8.301l15.16,0l-0.019,4.299l-15.141,0l0,8.998l-4.1,0l0,-8.998l-14.4,0l0,-4.299l14.4,0l0,-8.301l0,0Z" style="fill:url(#_Linear2);fill-rule:nonzero;"/><path id="path4178" d="M20.1,0l6.726,0l-6.726,4.941l0,-4.941Z" style="fill:url(#_Linear3);fill-rule:nonzero;"/><path id="path4176" d="M29.529,0l4.166,0l-0.006,0.981l-8.084,5.72l-5.199,0l9.123,-6.701l0,0Z" style="fill:url(#_Linear4);fill-rule:nonzero;"/><path id="path4174" d="M35.295,0l-0.098,23.197l-15.097,0l-1.6,0l-4.1,0l-1.599,0l-12.801,0l0,17.2c0,2.451 1.949,4.4 4.4,4.4l60,0c2.452,0 4.401,-1.949 4.401,-4.4l0,-35.999c0,-2.451 -1.949,-4.398 -4.401,-4.398l-29.105,0Zm17.621,3.002l0.646,1.883l1.938,-0.633l-1.07,1.68l1.703,1.119l-1.981,0.211l0.186,2.029l-1.399,-1.418l-1.47,1.412l0.236,-1.978l-2.021,-0.27l1.693,-1.049l-1.049,-1.748l1.877,0.67l0.711,-1.908Zm10.648,9.914l0.647,1.885l1.937,-0.635l-1.07,1.68l1.703,1.119l-1.98,0.211l0.185,2.029l-1.398,-1.416l-1.471,1.41l0.235,-1.976l-2.02,-0.27l1.693,-1.051l-1.048,-1.746l1.875,0.67l0.712,-1.91Zm-22.607,2.898l0.689,2.01l2.067,-0.676l-1.143,1.791l1.819,1.194l-2.114,0.224l0.2,2.165l-1.493,-1.512l-1.568,1.506l0.252,-2.11l-2.156,-0.287l1.806,-1.119l-1.119,-1.863l2.002,0.715l0.758,-2.038Zm16.732,6.487l0.516,1.379l1.504,0.017l-1.152,0.916l0.447,1.436l-1.229,-0.813l-1.224,0.869l0.392,-1.419l-1.205,-0.897l1.471,-0.064l0.48,-1.424Zm-41.498,4.99l1.409,4.107l4.224,-1.38l-2.334,3.662l3.713,2.439l-4.318,0.459l0.408,4.426l-3.053,-3.09l-3.205,3.078l0.514,-4.314l-4.404,-0.586l3.691,-2.287l-2.287,-3.811l4.09,1.461l1.552,-4.164Zm36.76,7.447l0.684,1.998l2.054,-0.672l-1.134,1.78l1.804,1.187l-2.099,0.223l0.199,2.15l-1.484,-1.502l-1.559,1.496l0.25,-2.095l-2.141,-0.285l1.795,-1.114l-1.113,-1.851l1.988,0.709l0.756,-2.024Z" style="fill:url(#_Linear5);fill-rule:nonzero;"/><path id="path4172" d="M3.865,0.053l8.672,6.648l-5.141,0l-6.671,-4.73c0.69,-1.05 1.822,-1.76 3.14,-1.918Z" style="fill:url(#_Linear6);fill-rule:nonzero;"/><path id="path4170" d="M33.682,2.947l-0.016,3.754l-5.289,0l5.305,-3.754l0,0Z" style="fill:url(#_Linear7);fill-rule:nonzero;"/><path id="path4168" d="M0.096,3.486l4.535,3.215l-4.631,0l0,-2.302c0,-0.314 0.035,-0.619 0.096,-0.913l0,0Z" style="fill:url(#_Linear8);fill-rule:nonzero;"/><path id="path4166" d="M0,14.201l4.365,0l-4.365,3.117l0,-3.117Z" style="fill:url(#_Linear9);fill-rule:nonzero;"/><path id="path4164" d="M7.117,14.201l5.207,0l-9.886,7.397l-2.438,0l0,-2.315l7.117,-5.082Z" style="fill:url(#_Linear10);fill-rule:nonzero;"/><path id="path4162" d="M20.467,14.201l4.781,0l8.361,5.854l-0.006,1.543l-3.505,0l-9.631,-7.397l0,0Z" style="fill:url(#_Linear11);fill-rule:nonzero;"/><path id="path4160" d="M28.041,14.201l5.594,0l-0.016,3.905l-5.578,-3.905l0,0Z" style="fill:url(#_Linear12);fill-rule:nonzero;"/><path id="path4158" d="M12.801,15.842l0,5.756l-7.692,0l7.692,-5.756Z" style="fill:url(#_Linear13);fill-rule:nonzero;"/><path id="rect11188" d="M20.1,15.936l7.373,5.662l-7.373,0l0,-5.662Z" style="fill:url(#_Linear14);fill-rule:nonzero;"/></g><defs><linearGradient id="_Linear1" x1="0" y1="0" x2="1" y2="0" gradientUnits="userSpaceOnUse" gradientTransform="matrix(37.6291,31.7782,-31.7782,37.6291,2.3588,-0.0229107)"><stop offset="0" style="stop-color:#001b5b;stop-opacity:1"/><stop offset="1" style="stop-color:#163e9d;stop-opacity:1"/></linearGradient><linearGradient id="_Linear2" x1="0" y1="0" x2="1" y2="0" gradientUnits="userSpaceOnUse" gradientTransform="matrix(37.6291,31.7782,-31.7782,37.6291,2.3588,-0.0229107)"><stop offset="0" style="stop-color:#001b5b;stop-opacity:1"/><stop offset="1" style="stop-color:#163e9d;stop-opacity:1"/></linearGradient><linearGradient id="_Linear3" x1="0" y1="0" x2="1" y2="0" gradientUnits="userSpaceOnUse" gradientTransform="matrix(37.6291,31.7782,-31.7782,37.6291,2.3588,-0.0229107)"><stop offset="0" style="stop-color:#001b5b;stop-opacity:1"/><stop offset="1" style="stop-color:#163e9d;stop-opacity:1"/></linearGradient><linearGradient id="_Linear4" x1="0" y1="0" x2="1" y2="0" gradientUnits="userSpaceOnUse" gradientTransform="matrix(37.6291,31.7782,-31.7782,37.6291,2.3588,-0.0229107)"><stop offset="0" style="stop-color:#001b5b;stop-opacity:1"/><stop offset="1" style="stop-color:#163e9d;stop-opacity:1"/></linearGradient><linearGradient id="_Linear5" x1="0" y1="0" x2="1" y2="0" gradientUnits="userSpaceOnUse" gradientTransform="matrix(37.6291,31.7782,-31.7782,37.6291,2.3588,-0.0229107)"><stop offset="0" style="stop-color:#001b5b;stop-opacity:1"/><stop offset="1" style="stop-color:#163e9d;stop-opacity:1"/></linearGradient><linearGradient id="_Linear6" x1="0" y1="0" x2="1" y2="0" gradientUnits="userSpaceOnUse" gradientTransform="matrix(37.6291,31.7782,-31.7782,37.6291,2.3588,-0.0229107)"><stop offset="0" style="stop-color:#001b5b;stop-opacity:1"/><stop offset="1" style="stop-color:#163e9d;stop-opacity:1"/></linearGradient><linearGradient id="_Linear7" x1="0" y1="0" x2="1" y2="0" gradientUnits="userSpaceOnUse" gradientTransform="matrix(37.6291,31.7782,-31.7782,37.6291,2.3588,-0.0229107)"><stop offset="0" style="stop-color:#001b5b;stop-opacity:1"/><stop offset="1" style="stop-color:#163e9d;stop-opacity:1"/></linearGradient><linearGradient id="_Linear8" x1="0" y1="0" x2="1" y2="0" gradientUnits="userSpaceOnUse" gradientTransform="matrix(37.6291,31.7782,-31.7782,37.6291,2.3588,-0.0229107)"><stop offset="0" style="stop-color:#001b5b;stop-opacity:1"/><stop offset="1" style="stop-color:#163e9d;stop-opacity:1"/></linearGradient><linearGradient id="_Linear9" x1="0" y1="0" x2="1" y2="0" gradientUnits="userSpaceOnUse" gradientTransform="matrix(37.6291,31.7782,-31.7782,37.6291,2.3588,-0.0229107)"><stop offset="0" style="stop-color:#001b5b;stop-opacity:1"/><stop offset="1" style="stop-color:#163e9d;stop-opacity:1"/></linearGradient><linearGradient id="_Linear10" x1="0" y1="0" x2="1" y2="0" gradientUnits="userSpaceOnUse" gradientTransform="matrix(37.6291,31.7782,-31.7782,37.6291,2.3588,-0.0229107)"><stop offset="0" style="stop-color:#001b5b;stop-opacity:1"/><stop offset="1" style="stop-color:#163e9d;stop-opacity:1"/></linearGradient><linearGradient id="_Linear11" x1="0" y1="0" x2="1" y2="0" gradientUnits="userSpaceOnUse" gradientTransform="matrix(37.6291,31.7782,-31.7782,37.6291,2.3588,-0.0229107)"><stop offset="0" style="stop-color:#001b5b;stop-opacity:1"/><stop offset="1" style="stop-color:#163e9d;stop-opacity:1"/></linearGradient><linearGradient id="_Linear12" x1="0" y1="0" x2="1" y2="0" gradientUnits="userSpaceOnUse" gradientTransform="matrix(37.6291,31.7782,-31.7782,37.6291,2.3588,-0.0229107)"><stop offset="0" style="stop-color:#001b5b;stop-opacity:1"/><stop offset="1" style="stop-color:#163e9d;stop-opacity:1"/></linearGradient><linearGradient id="_Linear13" x1="0" y1="0" x2="1" y2="0" gradientUnits="userSpaceOnUse" gradientTransform="matrix(37.6291,31.7782,-31.7782,37.6291,2.3588,-0.0229107)"><stop offset="0" style="stop-color:#001b5b;stop-opacity:1"/><stop offset="1" style="stop-color:#163e9d;stop-opacity:1"/></linearGradient><linearGradient id="_Linear14" x1="0" y1="0" x2="1" y2="0" gradientUnits="userSpaceOnUse" gradientTransform="matrix(37.6291,31.7782,-31.7782,37.6291,2.3588,-0.0229107)"><stop offset="0" style="stop-color:#001b5b;stop-opacity:1"/><stop offset="1" style="stop-color:#163e9d;stop-opacity:1"/></linearGradient></defs></svg>