<?xml version="1.0" encoding="UTF-8" standalone="no"?><!DOCTYPE svg PUBLIC "-//W3C//DTD SVG 1.1//EN" "http://www.w3.org/Graphics/SVG/1.1/DTD/svg11.dtd"><svg width="100%" height="100%" viewBox="0 0 69 45" version="1.1" xmlns="http://www.w3.org/2000/svg" xmlns:xlink="http://www.w3.org/1999/xlink" xml:space="preserve" xmlns:serif="http://www.serif.com/" style="fill-rule:evenodd;clip-rule:evenodd;stroke-linejoin:round;stroke-miterlimit:2;"><rect id="canada" x="0" y="0" width="68.801" height="44.801" style="fill:none;"/><clipPath id="_clip1"><rect x="0" y="0" width="68.801" height="44.801"/></clipPath><g clip-path="url(#_clip1)"><g id="canada1" serif:id="canada"><path id="path4145" d="M4.4,0l13.2,0l0,44.801l-13.2,0c-2.451,0 -4.4,-1.949 -4.4,-4.401l0,-36c0,-2.451 1.949,-4.4 4.4,-4.4Z" style="fill:url(#_Linear2);fill-rule:nonzero;"/><path id="path4143" d="M19.201,0l0,44.801l30.399,0l0,-44.801l-30.399,0Zm15.197,9.795c0.243,-0.001 0.47,0.122 0.602,0.326l2.543,3.932l2.363,0c0.392,-0.001 0.714,0.321 0.715,0.713l0,4.318l4.006,0c0.392,0 0.714,0.323 0.714,0.714c0,0.138 -0.04,0.272 -0.114,0.388l-2.489,3.845l1.68,2.315c0.088,0.121 0.135,0.268 0.135,0.418c0,0.292 -0.18,0.556 -0.451,0.664l-3.481,1.371l0,2.609c-0.001,0.391 -0.323,0.713 -0.714,0.713c-0.101,0 -0.2,-0.021 -0.292,-0.062l-4.187,-1.873l-0.313,0l0,4.82l-1.429,0l0,-4.82l-0.313,0l-4.187,1.873c-0.092,0.041 -0.192,0.062 -0.292,0.062c-0.391,0 -0.713,-0.322 -0.714,-0.713l0,-2.609l-3.481,-1.371c-0.272,-0.108 -0.451,-0.372 -0.451,-0.664c0,-0.15 0.047,-0.297 0.135,-0.418l1.679,-2.315l-2.488,-3.845c-0.074,-0.116 -0.114,-0.25 -0.114,-0.388c0,-0.391 0.322,-0.714 0.714,-0.714l4.006,0l0,-4.318c0,-0.392 0.323,-0.714 0.715,-0.713l2.363,0l2.543,-3.932c0.131,-0.202 0.356,-0.325 0.597,-0.326Z" style="fill:url(#_Linear3);fill-rule:nonzero;"/><path id="rect15245" d="M51.201,0l13.199,0c2.452,0 4.401,1.949 4.401,4.4l0,36c0,2.452 -1.949,4.401 -4.401,4.401l-13.199,0l0,-44.801Z" style="fill:url(#_Linear4);fill-rule:nonzero;"/></g></g><defs><linearGradient id="_Linear2" x1="0" y1="0" x2="1" y2="0" gradientUnits="userSpaceOnUse" gradientTransform="matrix(32.0139,30.7522,-30.7522,32.0139,2.38653,-1.5996)"><stop offset="0" style="stop-color:#001b5b;stop-opacity:1"/><stop offset="1" style="stop-color:#163e9d;stop-opacity:1"/></linearGradient><linearGradient id="_Linear3" x1="0" y1="0" x2="1" y2="0" gradientUnits="userSpaceOnUse" gradientTransform="matrix(32.0139,30.7522,-30.7522,32.0139,2.38653,-1.5996)"><stop offset="0" style="stop-color:#001b5b;stop-opacity:1"/><stop offset="1" style="stop-color:#163e9d;stop-opacity:1"/></linearGradient><linearGradient id="_Linear4" x1="0" y1="0" x2="1" y2="0" gradientUnits="userSpaceOnUse" gradientTransform="matrix(32.0139,30.7522,-30.7522,32.0139,2.38653,-1.5996)"><stop offset="0" style="stop-color:#001b5b;stop-opacity:1"/><stop offset="1" style="stop-color:#163e9d;stop-opacity:1"/></linearGradient></defs></svg>