<?xml version="1.0" encoding="UTF-8" standalone="no"?><!DOCTYPE svg PUBLIC "-//W3C//DTD SVG 1.1//EN" "http://www.w3.org/Graphics/SVG/1.1/DTD/svg11.dtd"><svg width="100%" height="100%" viewBox="0 0 69 45" version="1.1" xmlns="http://www.w3.org/2000/svg" xmlns:xlink="http://www.w3.org/1999/xlink" xml:space="preserve" xmlns:serif="http://www.serif.com/" style="fill-rule:evenodd;clip-rule:evenodd;stroke-linejoin:round;stroke-miterlimit:2;"><rect id="france" x="0" y="0" width="68.801" height="44.801" style="fill:none;"/><clipPath id="_clip1"><rect x="0" y="0" width="68.801" height="44.801"/></clipPath><g clip-path="url(#_clip1)"><g id="france1" serif:id="france"><path id="path4143" d="M4.4,0l17.2,0l0,44.801l-17.2,0c-2.451,0 -4.4,-1.949 -4.4,-4.401l0,-36c0,-2.451 1.949,-4.4 4.4,-4.4Z" style="fill:url(#_Linear2);"/><rect id="path4141" x="23.201" y="0" width="22.398" height="44.801" style="fill:url(#_Linear3);"/><path id="path12131-1" d="M47.201,0l17.199,0c2.452,0 4.401,1.949 4.401,4.4l0,36c0,2.452 -1.949,4.401 -4.401,4.401l-17.199,0l0,-44.801Z" style="fill:url(#_Linear4);"/></g></g><defs><linearGradient id="_Linear2" x1="0" y1="0" x2="1" y2="0" gradientUnits="userSpaceOnUse" gradientTransform="matrix(47.9723,22.5719,-22.5719,47.9723,1.91512,1.28428)"><stop offset="0" style="stop-color:#001b5b;stop-opacity:1"/><stop offset="1" style="stop-color:#163e9d;stop-opacity:1"/></linearGradient><linearGradient id="_Linear3" x1="0" y1="0" x2="1" y2="0" gradientUnits="userSpaceOnUse" gradientTransform="matrix(47.9723,22.5719,-22.5719,47.9723,1.91512,1.28428)"><stop offset="0" style="stop-color:#001b5b;stop-opacity:1"/><stop offset="1" style="stop-color:#163e9d;stop-opacity:1"/></linearGradient><linearGradient id="_Linear4" x1="0" y1="0" x2="1" y2="0" gradientUnits="userSpaceOnUse" gradientTransform="matrix(47.9723,22.5719,-22.5719,47.9723,1.91512,1.28428)"><stop offset="0" style="stop-color:#001b5b;stop-opacity:1"/><stop offset="1" style="stop-color:#163e9d;stop-opacity:1"/></linearGradient></defs></svg>