<?xml version="1.0" encoding="UTF-8" standalone="no"?><!DOCTYPE svg PUBLIC "-//W3C//DTD SVG 1.1//EN" "http://www.w3.org/Graphics/SVG/1.1/DTD/svg11.dtd"><svg width="100%" height="100%" viewBox="0 0 69 45" version="1.1" xmlns="http://www.w3.org/2000/svg" xmlns:xlink="http://www.w3.org/1999/xlink" xml:space="preserve" xmlns:serif="http://www.serif.com/" style="fill-rule:evenodd;clip-rule:evenodd;stroke-linejoin:round;stroke-miterlimit:2;"><rect id="singapore" x="0" y="0" width="68.801" height="44.801" style="fill:none;"/><clipPath id="_clip1"><rect x="0" y="0" width="68.801" height="44.801"/></clipPath><g clip-path="url(#_clip1)"><g id="singapore1" serif:id="singapore"><path id="path4144" d="M4.4,0c-2.451,0 -4.4,1.949 -4.4,4.4l0,17.2l68.801,0l0,-17.2c0,-2.451 -1.949,-4.4 -4.401,-4.4l-60,0Zm9.416,2.744c0.999,0.003 1.989,0.191 2.918,0.555c-4.079,0.05 -7.408,3.42 -7.41,7.5c0.002,4.088 3.344,7.461 7.432,7.5c-0.937,0.367 -1.934,0.556 -2.94,0.556c0,0 0,0 0,0c-4.42,0 -8.056,-3.636 -8.056,-8.056c0,0 0,0 0,0c0.001,-4.419 3.637,-8.055 8.056,-8.055Zm3.68,1.453l0.418,1.143l1.219,0.047l-0.961,0.75l0.332,1.174l-1.01,-0.68l-1.014,0.676l0.336,-1.17l-0.959,-0.752l1.219,-0.045l0.42,-1.143Zm-4.75,3.467l0.418,1.143l1.217,0.047l-0.959,0.75l0.332,1.173l-1.01,-0.679l-1.014,0.675l0.336,-1.169l-0.959,-0.752l1.217,-0.045l0.422,-1.143Zm9.502,0l0.416,1.143l1.219,0.047l-0.959,0.75l0.332,1.173l-1.012,-0.679l-1.012,0.675l0.334,-1.169l-0.957,-0.752l1.217,-0.045l0.422,-1.143Zm-7.68,5.256l0.418,1.144l1.217,0.047l-0.959,0.754l0.332,1.17l-1.01,-0.68l-1.013,0.68l0.336,-1.174l-0.959,-0.754l1.216,-0.043l0.422,-1.144Zm5.858,0l0.416,1.144l1.219,0.047l-0.959,0.754l0.332,1.17l-1.012,-0.68l-1.012,0.68l0.334,-1.174l-0.957,-0.754l1.217,-0.043l0.422,-1.144Z" style="fill:url(#_Linear2);"/><path id="path11570-91" d="M0,23.201l68.801,0l0,17.199c0,2.452 -1.949,4.401 -4.401,4.401l-60,0c-2.451,0 -4.4,-1.949 -4.4,-4.401l0,-17.199Z" style="fill:url(#_Linear3);"/></g></g><defs><linearGradient id="_Linear2" x1="0" y1="0" x2="1" y2="0" gradientUnits="userSpaceOnUse" gradientTransform="matrix(31.695,25.7331,-25.7331,31.695,0.0295066,0.507843)"><stop offset="0" style="stop-color:#001b5b;stop-opacity:1"/><stop offset="1" style="stop-color:#163e9d;stop-opacity:1"/></linearGradient><linearGradient id="_Linear3" x1="0" y1="0" x2="1" y2="0" gradientUnits="userSpaceOnUse" gradientTransform="matrix(31.695,25.7331,-25.7331,31.695,0.0295066,0.507843)"><stop offset="0" style="stop-color:#001b5b;stop-opacity:1"/><stop offset="1" style="stop-color:#163e9d;stop-opacity:1"/></linearGradient></defs></svg>