<?xml version="1.0" encoding="UTF-8" standalone="no"?><!DOCTYPE svg PUBLIC "-//W3C//DTD SVG 1.1//EN" "http://www.w3.org/Graphics/SVG/1.1/DTD/svg11.dtd"><svg width="100%" height="100%" viewBox="0 0 5542 3767" version="1.1" xmlns="http://www.w3.org/2000/svg" xmlns:xlink="http://www.w3.org/1999/xlink" xml:space="preserve" xmlns:serif="http://www.serif.com/" style="fill-rule:evenodd;clip-rule:evenodd;stroke-linejoin:round;stroke-miterlimit:1.41421;"><g><path d="M5541.07,0c0,0 -3659.35,1091.57 -4349.67,1297.49c-66.209,19.75 -111.586,80.638 -111.586,149.73c0,175.86 0,507.43 0,684.505c0,70.073 46.652,131.577 114.131,150.466c696.72,195.027 4347.13,1216.85 4347.13,1216.85" style="fill:#1771bb;fill-opacity:0.05;"/><path d="M5541.07,267.327c0,0 -4614.14,1108.16 -5421.31,1302.02c-70.242,16.87 -119.762,79.691 -119.762,151.93l0,671.346c0,73.059 50.626,136.365 121.897,152.427c813.142,183.259 5419.18,1221.33 5419.18,1221.33" style="fill:url(#_Linear1);"/></g><defs><linearGradient id="_Linear1" x1="0" y1="0" x2="1" y2="0" gradientUnits="userSpaceOnUse" gradientTransform="matrix(5237.21,-13.7404,13.7404,5237.21,-331.067,2194.57)"><stop offset="0" style="stop-color:#1771bb;stop-opacity:0.07"/><stop offset="1" style="stop-color:#1771bb;stop-opacity:0"/></linearGradient></defs></svg>