<?xml version="1.0" encoding="UTF-8" standalone="no"?><!DOCTYPE svg PUBLIC "-//W3C//DTD SVG 1.1//EN" "http://www.w3.org/Graphics/SVG/1.1/DTD/svg11.dtd"><svg width="100%" height="100%" viewBox="0 0 6001 4742" version="1.1" xmlns="http://www.w3.org/2000/svg" xmlns:xlink="http://www.w3.org/1999/xlink" xml:space="preserve" xmlns:serif="http://www.serif.com/" style="fill-rule:evenodd;clip-rule:evenodd;stroke-linejoin:round;stroke-miterlimit:1.41421;"><g><path d="M6000.03,1204.96c0,0 -3703.04,1104.61 -4397.74,1311.83c-66.209,19.749 -111.586,80.638 -111.586,149.73c0,177.85 0,515.33 0,694.412c0,70.073 46.652,131.577 114.132,150.466c701.149,196.267 4395.2,1230.31 4395.2,1230.31" style="fill:url(#_Linear1);"/><path d="M0,3536.75c0,0 4668.78,-1121.28 5481.01,-1316.36c70.242,-16.87 119.762,-79.691 119.762,-151.93c0,-177.358 0,-502.905 0,-681.253c0,-73.059 -50.626,-136.365 -121.897,-152.427c-818.243,-184.409 -5478.88,-1234.78 -5478.88,-1234.78" style="fill:url(#_Linear2);"/></g><defs><linearGradient id="_Linear1" x1="0" y1="0" x2="1" y2="0" gradientUnits="userSpaceOnUse" gradientTransform="matrix(-2209.72,2.70613e-13,-2.70613e-13,-2209.72,4728.27,2840.76)"><stop offset="0" style="stop-color:#1771bb;stop-opacity:0.05"/><stop offset="1" style="stop-color:#1771bb;stop-opacity:0"/></linearGradient><linearGradient id="_Linear2" x1="0" y1="0" x2="1" y2="0" gradientUnits="userSpaceOnUse" gradientTransform="matrix(5005.48,1097.09,-1097.09,5005.48,312.439,916.352)"><stop offset="0" style="stop-color:#1771bb;stop-opacity:0.07"/><stop offset="1" style="stop-color:#1771bb;stop-opacity:0"/></linearGradient></defs></svg>