<?xml version="1.0" encoding="UTF-8" standalone="no"?><!DOCTYPE svg PUBLIC "-//W3C//DTD SVG 1.1//EN" "http://www.w3.org/Graphics/SVG/1.1/DTD/svg11.dtd"><svg width="100%" height="100%" viewBox="0 0 6001 1142" version="1.1" xmlns="http://www.w3.org/2000/svg" xmlns:xlink="http://www.w3.org/1999/xlink" xml:space="preserve" xmlns:serif="http://www.serif.com/" style="fill-rule:evenodd;clip-rule:evenodd;stroke-linejoin:round;stroke-miterlimit:1.41421;"><rect x="0" y="0" width="6000.05" height="1141.69" style="fill:#0085fe;"/><clipPath id="_clip1"><rect x="0" y="0" width="6000.05" height="1141.69"/></clipPath><g clip-path="url(#_clip1)"><g opacity="0.07"><path d="M132.383,600.429c-84.737,-171.724 -132.357,-364.985 -132.357,-569.281c0,-711.567 577.702,-1289.27 1289.27,-1289.27c711.566,0 1289.27,577.702 1289.27,1289.27c0,711.567 -577.702,1289.27 -1289.27,1289.27c-105.95,0 -208.932,-12.808 -307.481,-36.959c115.441,-101.437 188.349,-250.142 188.349,-415.741c0,-3.385 -0.031,-6.763 -0.092,-10.134c38.942,5.578 78.748,8.465 119.224,8.465c460.793,0 834.899,-374.106 834.899,-834.9c0,-460.794 -374.106,-834.9 -834.899,-834.9c-460.794,0 -834.9,374.106 -834.9,834.9c0,103.472 18.863,202.573 53.337,294.049c-161.639,32.387 -297.926,135.301 -375.349,275.232Zm472.796,-90.829c90.509,129.115 216.624,231.482 364.036,292.796c3.909,21.182 5.952,43.015 5.952,65.321c0,151.577 -94.326,281.296 -227.431,333.611c-191.738,-88.971 -358.003,-223.696 -484.738,-390.118c26.535,-167.203 168.904,-296.047 342.181,-301.61Z" style="fill:url(#_Linear2);"/><path d="M2347.25,-282.954c-52.962,-107.33 -82.725,-228.121 -82.725,-355.809c0,-444.741 361.073,-805.814 805.813,-805.814c444.74,0 805.813,361.073 805.813,805.814c0,444.74 -361.073,805.813 -805.813,805.813c-66.22,0 -130.585,-8.005 -192.18,-23.1c72.152,-63.4 117.721,-156.343 117.721,-259.845c0,-2.116 -0.019,-4.227 -0.058,-6.333c24.34,3.486 49.219,5.29 74.517,5.29c288.003,0 521.825,-233.822 521.825,-521.825c0,-288.004 -233.822,-521.826 -521.825,-521.826c-288.003,0 -521.825,233.822 -521.825,521.826c0,64.671 11.79,126.611 33.336,183.785c-101.027,20.242 -186.208,84.565 -234.599,172.024Zm295.505,-56.769c56.57,80.698 135.393,144.679 227.528,183.001c2.443,13.24 3.72,26.885 3.72,40.827c0,94.738 -58.955,175.815 -142.148,208.512c-119.839,-55.608 -223.757,-139.813 -302.968,-243.83c16.584,-104.504 105.567,-185.034 213.868,-188.51Z" style="fill:url(#_Linear3);"/><path d="M4374.3,842.347c-10.429,159.704 -56.723,319.487 -142.095,467.356c-297.355,515.034 -956.911,691.761 -1471.94,394.407c-515.034,-297.355 -691.761,-956.911 -394.407,-1471.94c297.355,-515.033 956.911,-691.76 1471.94,-394.406c76.686,44.275 145.872,96.58 207.11,155.243c-125.946,25.179 -240.858,102.345 -310.06,222.206c-1.415,2.45 -2.804,4.908 -4.169,7.373c-25.855,-20.311 -53.46,-39.035 -82.756,-55.949c-333.524,-192.559 -760.637,-78.115 -953.196,255.408c-192.56,333.524 -78.116,760.637 255.408,953.196c333.523,192.56 760.636,78.116 953.196,-255.408c43.239,-74.893 70.999,-154.505 84.273,-235.121c130.529,44.104 272.18,26.567 386.695,-42.36Zm-380.167,-131.834c-11.556,-131.276 -60.06,-258.071 -141.135,-364.052c6.023,-16.965 13.668,-33.621 22.989,-49.767c63.342,-109.711 185.824,-164.185 304.027,-146.428c101.601,144.523 165.643,311.516 187.829,484.934c-89.078,109.933 -245.967,143.697 -373.71,75.313Z" style="fill:url(#_Linear4);"/><path d="M4783.54,569.32c-10.428,159.704 -56.722,319.486 -142.095,467.356c-297.355,515.033 -956.911,691.761 -1471.94,394.406c-515.033,-297.354 -691.761,-956.91 -394.406,-1471.94c297.354,-515.033 956.911,-691.761 1471.94,-394.406c76.686,44.275 145.873,96.58 207.11,155.243c-125.945,25.179 -240.858,102.345 -310.06,222.206c-1.414,2.45 -2.804,4.907 -4.168,7.373c-25.855,-20.311 -53.461,-39.035 -82.757,-55.949c-333.523,-192.56 -760.636,-78.115 -953.196,255.408c-192.56,333.524 -78.115,760.636 255.408,953.196c333.523,192.56 760.636,78.115 953.196,-255.408c43.24,-74.893 70.999,-154.506 84.274,-235.122c130.529,44.105 272.179,26.568 386.694,-42.359Zm-380.167,-131.834c-11.555,-131.276 -60.059,-258.072 -141.134,-364.052c6.022,-16.966 13.667,-33.622 22.989,-49.767c63.342,-109.711 185.823,-164.185 304.027,-146.428c101.6,144.522 165.643,311.516 187.828,484.934c-89.078,109.933 -245.967,143.697 -373.71,75.313Z" style="fill:url(#_Linear5);"/><path d="M313.413,569.281c-84.736,-171.724 -132.357,-364.985 -132.357,-569.281c0,-711.567 577.702,-1289.27 1289.27,-1289.27c711.567,0 1289.27,577.702 1289.27,1289.27c0,711.567 -577.702,1289.27 -1289.27,1289.27c-105.949,0 -208.931,-12.808 -307.48,-36.959c115.441,-101.437 188.349,-250.142 188.349,-415.741c0,-3.385 -0.031,-6.763 -0.092,-10.134c38.942,5.579 78.748,8.465 119.223,8.465c460.794,0 834.9,-374.106 834.9,-834.9c0,-460.794 -374.106,-834.9 -834.9,-834.9c-460.793,0 -834.9,374.106 -834.9,834.9c0,103.472 18.864,202.573 53.337,294.049c-161.638,32.387 -297.925,135.301 -375.349,275.232Zm472.796,-90.829c90.51,129.115 216.625,231.482 364.037,292.796c3.909,21.182 5.952,43.015 5.952,65.321c0,151.577 -94.326,281.296 -227.432,333.611c-191.737,-88.971 -358.002,-223.696 -484.737,-390.118c26.535,-167.203 168.903,-296.047 342.18,-301.61Z" style="fill:url(#_Linear6);"/><path d="M2471.35,-282.954c-52.962,-107.33 -82.726,-228.121 -82.726,-355.809c0,-444.741 361.073,-805.814 805.813,-805.814c444.741,0 805.814,361.073 805.814,805.814c0,444.74 -361.073,805.813 -805.814,805.813c-66.22,0 -130.585,-8.005 -192.18,-23.1c72.153,-63.4 117.721,-156.343 117.721,-259.845c0,-2.116 -0.019,-4.227 -0.057,-6.333c24.339,3.486 49.219,5.29 74.516,5.29c288.004,0 521.826,-233.822 521.826,-521.825c0,-288.004 -233.822,-521.826 -521.826,-521.826c-288.003,0 -521.825,233.822 -521.825,521.826c0,64.671 11.79,126.611 33.337,183.785c-101.027,20.242 -186.209,84.565 -234.599,172.024Zm295.504,-56.769c56.57,80.698 135.394,144.679 227.529,183.001c2.443,13.24 3.72,26.885 3.72,40.827c0,94.738 -58.955,175.815 -142.148,208.512c-119.839,-55.608 -223.757,-139.813 -302.969,-243.83c16.585,-104.504 105.568,-185.034 213.868,-188.51Z" style="fill:url(#_Linear7);"/><path d="M914.092,284.026c-32.082,-65.016 -50.112,-138.186 -50.112,-215.535c0,-269.405 218.723,-488.128 488.129,-488.128c269.406,0 488.129,218.723 488.129,488.128c0,269.406 -218.723,488.129 -488.129,488.129c-40.113,0 -79.103,-4.849 -116.415,-13.993c43.707,-38.404 71.311,-94.706 71.311,-157.403c0,-1.282 -0.012,-2.56 -0.035,-3.837c14.744,2.112 29.815,3.205 45.139,3.205c174.461,0 316.101,-141.64 316.101,-316.101c0,-174.46 -141.64,-316.1 -316.101,-316.1c-174.461,0 -316.101,141.64 -316.101,316.1c0,39.176 7.142,76.697 20.194,111.33c-61.198,12.262 -112.797,51.226 -142.11,104.205Zm179.005,-34.388c34.267,48.884 82.016,87.641 137.827,110.855c1.48,8.02 2.254,16.286 2.254,24.731c0,57.388 -35.713,106.501 -86.108,126.308c-72.594,-33.685 -135.543,-84.693 -183.526,-147.702c10.046,-63.304 63.948,-112.086 129.553,-114.192Z" style="fill:url(#_Linear8);"/><path d="M3264.76,442.1c70.217,4.585 140.469,24.939 205.482,62.475c226.444,130.737 304.146,420.723 173.408,647.167c-130.737,226.444 -420.723,304.145 -647.167,173.408c-226.444,-130.738 -304.145,-420.724 -173.408,-647.167c19.466,-33.717 42.463,-64.136 68.256,-91.06c11.07,55.374 44.997,105.898 97.696,136.323c1.078,0.622 2.158,1.233 3.242,1.833c-8.93,11.368 -17.162,23.505 -24.599,36.386c-84.662,146.639 -34.345,334.427 112.295,419.09c146.64,84.662 334.428,34.344 419.09,-112.295c84.662,-146.64 34.345,-334.428 -112.295,-419.09c-32.928,-19.011 -67.931,-31.216 -103.375,-37.053c19.391,-57.389 11.681,-119.668 -18.625,-170.017Zm-57.963,167.147c-57.718,5.081 -113.466,26.407 -160.062,62.053c-7.459,-2.648 -14.782,-6.009 -21.881,-10.108c-48.236,-27.849 -72.187,-81.7 -64.379,-133.671c63.541,-44.67 136.963,-72.828 213.21,-82.582c48.334,39.165 63.179,108.144 33.112,164.308Z" style="fill:url(#_Linear9);"/><path d="M3802.98,-7.628c-52.962,-107.33 -82.725,-228.121 -82.725,-355.809c0,-444.74 361.073,-805.813 805.813,-805.813c444.74,0 805.813,361.073 805.813,805.813c0,444.74 -361.073,805.813 -805.813,805.813c-66.22,0 -130.585,-8.005 -192.18,-23.1c72.152,-63.399 117.721,-156.342 117.721,-259.845c0,-2.115 -0.019,-4.226 -0.058,-6.333c24.34,3.486 49.219,5.29 74.517,5.29c288.003,0 521.825,-233.822 521.825,-521.825c0,-288.003 -233.822,-521.825 -521.825,-521.825c-288.003,0 -521.825,233.822 -521.825,521.825c0,64.672 11.79,126.611 33.336,183.785c-101.027,20.243 -186.208,84.565 -234.599,172.024Zm295.505,-56.769c56.57,80.699 135.393,144.68 227.528,183.002c2.443,13.239 3.72,26.885 3.72,40.826c0,94.738 -58.955,175.815 -142.148,208.513c-119.839,-55.609 -223.757,-139.814 -302.968,-243.83c16.584,-104.505 105.567,-185.034 213.868,-188.511Z" style="fill:url(#_Linear10);"/><path d="M5859.95,382.487c-10.428,159.704 -56.722,319.487 -142.095,467.356c-297.354,515.034 -956.911,691.761 -1471.94,394.407c-515.033,-297.355 -691.761,-956.911 -394.406,-1471.94c297.354,-515.034 956.911,-691.761 1471.94,-394.407c76.686,44.275 145.873,96.58 207.11,155.244c-125.945,25.178 -240.858,102.344 -310.06,222.205c-1.414,2.45 -2.804,4.908 -4.168,7.373c-25.855,-20.311 -53.461,-39.035 -82.757,-55.949c-333.523,-192.559 -760.636,-78.115 -953.196,255.409c-192.56,333.523 -78.115,760.636 255.408,953.196c333.523,192.559 760.636,78.115 953.196,-255.409c43.24,-74.893 70.999,-154.505 84.274,-235.121c130.529,44.104 272.18,26.567 386.694,-42.36Zm-380.167,-131.834c-11.555,-131.276 -60.059,-258.071 -141.134,-364.052c6.022,-16.965 13.667,-33.621 22.989,-49.766c63.342,-109.712 185.823,-164.186 304.027,-146.429c101.6,144.523 165.643,311.516 187.828,484.935c-89.078,109.932 -245.967,143.696 -373.71,75.312Z" style="fill:url(#_Linear11);"/></g></g><defs><linearGradient id="_Linear2" x1="0" y1="0" x2="1" y2="0" gradientUnits="userSpaceOnUse" gradientTransform="matrix(-815.39,-706.848,706.848,-815.39,1289.29,303.827)"><stop offset="0" style="stop-color:#fff;stop-opacity:1"/><stop offset="1" style="stop-color:#fff;stop-opacity:0"/></linearGradient><linearGradient id="_Linear3" x1="0" y1="0" x2="1" y2="0" gradientUnits="userSpaceOnUse" gradientTransform="matrix(-509.631,-441.791,441.791,-509.631,3070.34,-468.335)"><stop offset="0" style="stop-color:#fff;stop-opacity:1"/><stop offset="1" style="stop-color:#fff;stop-opacity:0"/></linearGradient><linearGradient id="_Linear4" x1="0" y1="0" x2="1" y2="0" gradientUnits="userSpaceOnUse" gradientTransform="matrix(-1224.87,-2069.14,2069.14,-1224.87,4575.23,1848.49)"><stop offset="0" style="stop-color:#fff;stop-opacity:1"/><stop offset="1" style="stop-color:#fff;stop-opacity:0"/></linearGradient><linearGradient id="_Linear5" x1="0" y1="0" x2="1" y2="0" gradientUnits="userSpaceOnUse" gradientTransform="matrix(-1224.87,-2069.14,2069.14,-1224.87,4984.48,1575.46)"><stop offset="0" style="stop-color:#fff;stop-opacity:1"/><stop offset="1" style="stop-color:#fff;stop-opacity:0"/></linearGradient><linearGradient id="_Linear6" x1="0" y1="0" x2="1" y2="0" gradientUnits="userSpaceOnUse" gradientTransform="matrix(-1085.42,598.306,-598.306,-1085.42,2804.6,-471.232)"><stop offset="0" style="stop-color:#fff;stop-opacity:1"/><stop offset="1" style="stop-color:#fff;stop-opacity:0"/></linearGradient><linearGradient id="_Linear7" x1="0" y1="0" x2="1" y2="0" gradientUnits="userSpaceOnUse" gradientTransform="matrix(-678.405,373.95,-373.95,-678.405,4028.38,-933.291)"><stop offset="0" style="stop-color:#fff;stop-opacity:1"/><stop offset="1" style="stop-color:#fff;stop-opacity:0"/></linearGradient><linearGradient id="_Linear8" x1="0" y1="0" x2="1" y2="0" gradientUnits="userSpaceOnUse" gradientTransform="matrix(-410.95,226.524,-226.524,-410.95,1857.28,-109.921)"><stop offset="0" style="stop-color:#fff;stop-opacity:1"/><stop offset="1" style="stop-color:#fff;stop-opacity:0"/></linearGradient><linearGradient id="_Linear9" x1="0" y1="0" x2="1" y2="0" gradientUnits="userSpaceOnUse" gradientTransform="matrix(9.02602,-455.344,455.344,9.02602,3138.17,1426.05)"><stop offset="0" style="stop-color:#fff;stop-opacity:1"/><stop offset="1" style="stop-color:#fff;stop-opacity:0"/></linearGradient><linearGradient id="_Linear10" x1="0" y1="0" x2="1" y2="0" gradientUnits="userSpaceOnUse" gradientTransform="matrix(-678.405,373.95,-373.95,-678.405,5360.01,-657.964)"><stop offset="0" style="stop-color:#fff;stop-opacity:1"/><stop offset="1" style="stop-color:#fff;stop-opacity:0"/></linearGradient><linearGradient id="_Linear11" x1="0" y1="0" x2="1" y2="0" gradientUnits="userSpaceOnUse" gradientTransform="matrix(-134.523,-354.367,354.367,-134.523,4781.49,394.047)"><stop offset="0" style="stop-color:#fff;stop-opacity:1"/><stop offset="1" style="stop-color:#fff;stop-opacity:0"/></linearGradient></defs></svg>